<svg width="23" height="22" viewBox="0 0 23 22" fill="none" xmlns="http://www.w3.org/2000/svg">
<path d="M2.98167 12.2322C2.98167 11.863 2.77822 11.5238 2.45248 11.3499C1.94845 11.081 1.55936 10.4673 1.50594 9.44314C1.45293 8.42694 1.75315 7.14636 2.47304 5.87484C3.89606 3.36139 6.89493 1 11.6089 1C16.1875 1 19.186 3.35626 20.5865 5.86901C21.2941 7.13855 21.5721 8.4077 21.4843 9.40777C21.3975 10.3959 20.9763 11.0311 20.349 11.3287C20.0463 11.4723 19.8356 11.7579 19.7878 12.0895C19.6832 12.8152 19.602 13.5033 19.527 14.1396C19.5182 14.214 19.5095 14.2876 19.5009 14.3605C19.4175 15.0643 19.3399 15.6955 19.2415 16.2742C19.0431 17.4408 18.7765 18.2794 18.3163 18.9147C17.4413 20.1224 15.5439 21 10.316 21C6.38146 21 4.70981 19.7564 3.89942 18.285C3.00527 16.6616 2.98168 14.5017 2.98167 12.2322Z" stroke="var(--svg-color)" stroke-width="2" stroke-linejoin="round"/>
<path d="M14.2753 13.7C14.2753 15.6421 12.8154 17.1036 11.1493 17.1036C9.48332 17.1036 8.02344 15.6421 8.02344 13.7C8.02344 11.7579 9.48332 10.2965 11.1493 10.2965C12.8154 10.2965 14.2753 11.7579 14.2753 13.7Z" stroke="var(--svg-color)" stroke-width="2"/>
</svg>
