<svg width="23" height="22" viewBox="0 0 23 22" fill="none" xmlns="http://www.w3.org/2000/svg">
<path d="M0.5 8C0.5 3.58172 4.08172 0 8.5 0H14.5C18.9183 0 22.5 3.58172 22.5 8V13.8902C22.5 16.7123 20.2123 19 17.3902 19H17.0125C16.0365 19 15.0927 19.3491 14.3516 19.9843C12.9609 21.1764 10.947 21.298 9.42289 20.2819L8.78498 19.8567C7.94711 19.2981 6.96264 19 5.95565 19H5.87314C2.90564 19 0.5 16.5944 0.5 13.6269V8Z" fill="var(--svg-color)"/>
<path d="M7.7 9H7.3C6.85817 9 6.5 9.35817 6.5 9.8V10.2C6.5 10.6418 6.85817 11 7.3 11H7.7C8.14183 11 8.5 10.6418 8.5 10.2V9.8C8.5 9.35817 8.14183 9 7.7 9Z" fill="white"/>
<path d="M11.7 9H11.3C10.8582 9 10.5 9.35817 10.5 9.8V10.2C10.5 10.6418 10.8582 11 11.3 11H11.7C12.1418 11 12.5 10.6418 12.5 10.2V9.8C12.5 9.35817 12.1418 9 11.7 9Z" fill="white"/>
<path d="M15.7 9H15.3C14.8582 9 14.5 9.35817 14.5 9.8V10.2C14.5 10.6418 14.8582 11 15.3 11H15.7C16.1418 11 16.5 10.6418 16.5 10.2V9.8C16.5 9.35817 16.1418 9 15.7 9Z" fill="white"/>
</svg>
