<svg width="23" height="22" viewBox="0 0 23 22" fill="none" xmlns="http://www.w3.org/2000/svg">
<path d="M13.5 0H9.5C4.52944 0 0.5 4.02944 0.5 9V13C0.5 17.9706 4.52944 22 9.5 22H13.5C18.4706 22 22.5 17.9706 22.5 13V9C22.5 4.02944 18.4706 0 13.5 0Z" fill="var(--svg-color)"/>
<path d="M11.3171 8.9C11.2771 8.9 11.2171 8.9 11.1671 8.9C10.1171 8.86 9.28711 8.01 9.28711 6.95C9.28711 5.87 10.1571 5 11.2371 5C12.3171 5 13.1871 5.88 13.1871 6.95C13.1971 8.01 12.3671 8.87 11.3171 8.9Z" stroke="white" stroke-width="1.5" stroke-linecap="round" stroke-linejoin="round"/>
<path d="M8.4975 11.9102C7.1675 12.8002 7.1675 14.2502 8.4975 15.1402C10.0075 16.1502 12.4875 16.1502 13.9975 15.1402C15.3275 14.2502 15.3275 12.8002 13.9975 11.9102C12.4875 10.9102 10.0175 10.9102 8.4975 11.9102Z" stroke="white" stroke-width="1.5" stroke-linecap="round" stroke-linejoin="round"/>
</svg>
