<svg width="23" height="22" viewBox="0 0 23 22" fill="none" xmlns="http://www.w3.org/2000/svg">
<path d="M13.5 0H9.5C4.52944 0 0.5 4.02944 0.5 9V13C0.5 17.9706 4.52944 22 9.5 22H13.5C18.4706 22 22.5 17.9706 22.5 13V9C22.5 4.02944 18.4706 0 13.5 0Z" fill="var(--svg-color)"/>
<path d="M9.5 9C9.5 8.44772 9.05228 8 8.5 8C7.94772 8 7.5 8.44772 7.5 9V11C7.5 11.5523 7.94772 12 8.5 12C9.05228 12 9.5 11.5523 9.5 11V9Z" fill="white"/>
<path d="M15.5 9C15.5 8.44772 15.0523 8 14.5 8C13.9477 8 13.5 8.44772 13.5 9V11C13.5 11.5523 13.9477 12 14.5 12C15.0523 12 15.5 11.5523 15.5 11V9Z" fill="white"/>
</svg>
