<svg width="22" height="21" viewBox="0 0 22 21" fill="none" xmlns="http://www.w3.org/2000/svg">
<path d="M1 8C1 4.13401 4.13401 1 8 1H14C17.866 1 21 4.13401 21 8V13.8902C21 16.16 19.16 18 16.8902 18H16.5125C15.2978 18 14.1231 18.4345 13.2009 19.225C12.1503 20.1256 10.6289 20.2174 9.47759 19.4499L8.83968 19.0246C7.83754 18.3565 6.66007 18 5.45565 18H5.37314C2.95792 18 1 16.0421 1 13.6269V8Z" stroke="var(--svg-color)" stroke-width="2"/>
<path d="M7.2 9H6.8C6.35817 9 6 9.35817 6 9.8V10.2C6 10.6418 6.35817 11 6.8 11H7.2C7.64183 11 8 10.6418 8 10.2V9.8C8 9.35817 7.64183 9 7.2 9Z" fill="var(--svg-color)"/>
<path d="M11.2 9H10.8C10.3582 9 10 9.35817 10 9.8V10.2C10 10.6418 10.3582 11 10.8 11H11.2C11.6418 11 12 10.6418 12 10.2V9.8C12 9.35817 11.6418 9 11.2 9Z" fill="var(--svg-color)"/>
<path d="M15.2 9H14.8C14.3582 9 14 9.35817 14 9.8V10.2C14 10.6418 14.3582 11 14.8 11H15.2C15.6418 11 16 10.6418 16 10.2V9.8C16 9.35817 15.6418 9 15.2 9Z" fill="var(--svg-color)"/>
</svg>
