<svg width="23" height="22" viewBox="0 0 23 22" fill="none" xmlns="http://www.w3.org/2000/svg">
<path d="M13.5 1H9.5C5.08172 1 1.5 4.58172 1.5 9V13C1.5 17.4183 5.08172 21 9.5 21H13.5C17.9183 21 21.5 17.4183 21.5 13V9C21.5 4.58172 17.9183 1 13.5 1Z" stroke="var(--svg-color)" stroke-width="2"/>
<path d="M9.5 9C9.5 8.44772 9.05228 8 8.5 8C7.94772 8 7.5 8.44772 7.5 9V11C7.5 11.5523 7.94772 12 8.5 12C9.05228 12 9.5 11.5523 9.5 11V9Z" fill="var(--svg-color)"/>
<path d="M15.5 9C15.5 8.44772 15.0523 8 14.5 8C13.9477 8 13.5 8.44772 13.5 9V11C13.5 11.5523 13.9477 12 14.5 12C15.0523 12 15.5 11.5523 15.5 11V9Z" fill="var(--svg-color)"/>
</svg>
